<?xml version="1.0" encoding="UTF-8" standalone="no"?>
<!-- Created with Inkscape (http://www.inkscape.org/) -->

<svg
   xmlns:dc="http://purl.org/dc/elements/1.1/"
   xmlns:cc="http://creativecommons.org/ns#"
   xmlns:rdf="http://www.w3.org/1999/02/22-rdf-syntax-ns#"
   xmlns:svg="http://www.w3.org/2000/svg"
   xmlns="http://www.w3.org/2000/svg"
   xmlns:sodipodi="http://sodipodi.sourceforge.net/DTD/sodipodi-0.dtd"
   xmlns:inkscape="http://www.inkscape.org/namespaces/inkscape"
   width="487"
   height="215"
   viewBox="0 0 487 215"
   id="svg4217"
   version="1.1"
   inkscape:version="0.91 r13725"
   sodipodi:docname="continuous_indexing.svg">
  <defs
     id="defs4219" />
  <sodipodi:namedview
     id="base"
     pagecolor="#ffffff"
     bordercolor="#666666"
     borderopacity="1.0"
     inkscape:pageopacity="0.0"
     inkscape:pageshadow="2"
     inkscape:zoom="1"
     inkscape:cx="254.00347"
     inkscape:cy="136.31369"
     inkscape:document-units="px"
     inkscape:current-layer="layer5"
     showgrid="false"
     units="px"
     inkscape:window-width="1231"
     inkscape:window-height="900"
     inkscape:window-x="442"
     inkscape:window-y="177"
     inkscape:window-maximized="0" />
  <metadata
     id="metadata4222">
    <rdf:RDF>
      <cc:Work
         rdf:about="">
        <dc:format>image/svg+xml</dc:format>
        <dc:type
           rdf:resource="http://purl.org/dc/dcmitype/StillImage" />
        <dc:title />
      </cc:Work>
    </rdf:RDF>
  </metadata>
  <g
     inkscape:label="Layer 1"
     inkscape:groupmode="layer"
     id="layer1"
     transform="translate(0,-837.36216)"
     style="display:inline" />
  <g
     inkscape:groupmode="layer"
     id="layer2"
     inkscape:label="EmoBG"
     style="display:inline">
    <ellipse
       style="fill:#00ffff;fill-opacity:1;stroke:#000000;stroke-width:1;stroke-miterlimit:4;stroke-dasharray:none;stroke-opacity:1"
       id="path4141"
       cx="140.34991"
       cy="84.1091"
       rx="34.597725"
       ry="9.5964499" />
    <path
       style="fill:none;fill-rule:evenodd;stroke:#000000;stroke-width:1px;stroke-linecap:butt;stroke-linejoin:miter;stroke-opacity:1"
       d="m 105.89083,84.825777 0.17857,49.107143 c 1.52268,13.84493 64.12654,15.30621 68.57143,1.42857 l 0.17857,-51.249993"
       id="path4143"
       inkscape:connector-curvature="0"
       sodipodi:nodetypes="cccc" />
    <rect
       style="fill:#00ecec;fill-opacity:1;stroke:#000000;stroke-width:1;stroke-miterlimit:4;stroke-dasharray:none;stroke-opacity:1"
       id="rect4212"
       width="107.14288"
       height="30.000004"
       x="275.71429"
       y="41.42857"
       ry="14.642859" />
    <path
       style="fill:#00ecec;fill-opacity:1;stroke:#000000;stroke-width:0.17857143;stroke-miterlimit:4;stroke-dasharray:none;stroke-opacity:1"
       d="m 136.28127,144.34851 c -15.34341,-0.75744 -26.81965,-4.32383 -29.14389,-9.05683 l -0.49897,-1.01609 -0.0579,-23.52678 c -0.0319,-12.939734 -0.009,-23.526788 0.0499,-23.526788 0.0593,0 0.51834,0.324515 1.02011,0.721143 4.24478,3.355304 15.37797,5.784627 28.54147,6.227902 16.32254,0.549653 31.66974,-2.103911 37.12977,-6.419817 l 0.95404,-0.754128 -0.13022,24.174948 c -0.14723,27.33293 0.0223,24.69238 -1.69624,26.41923 -3.71515,3.7331 -13.18757,6.19975 -26.00858,6.77273 -4.33963,0.19394 -5.96686,0.19145 -10.15949,-0.0155 z"
       id="path4184"
       inkscape:connector-curvature="0" />
  </g>
  <g
     inkscape:groupmode="layer"
     id="layer3"
     inkscape:label="EmoText"
     style="display:inline">
    <text
       xml:space="preserve"
       style="font-style:normal;font-weight:normal;font-size:17.5px;line-height:125%;font-family:sans-serif;text-align:center;letter-spacing:0px;word-spacing:0px;text-anchor:middle;fill:#000000;fill-opacity:1;stroke:none;stroke-width:1px;stroke-linecap:butt;stroke-linejoin:miter;stroke-opacity:1"
       x="140.71227"
       y="118.93292"
       id="text4145"
       sodipodi:linespacing="125%"><tspan
         sodipodi:role="line"
         id="tspan4147"
         x="140.71227"
         y="118.93292">EmoDB</tspan></text>
  </g>
  <g
     inkscape:groupmode="layer"
     id="layer7"
     inkscape:label="Service A"
     style="display:inline">
    <text
       xml:space="preserve"
       style="font-style:normal;font-weight:normal;font-size:17.5px;line-height:125%;font-family:sans-serif;text-align:center;letter-spacing:0px;word-spacing:0px;text-anchor:middle;fill:#000000;fill-opacity:1;stroke:none;stroke-width:1px;stroke-linecap:butt;stroke-linejoin:miter;stroke-opacity:1"
       x="330"
       y="62.857143"
       id="text4205"
       sodipodi:linespacing="125%"><tspan
         sodipodi:role="line"
         id="tspan4207"
         x="330"
         y="62.857143">Service A</tspan></text>
  </g>
  <g
     inkscape:groupmode="layer"
     id="layer8"
     inkscape:label="Service B"
     style="display:inline">
    <rect
       style="fill:#00ecec;fill-opacity:1;stroke:#000000;stroke-width:1;stroke-miterlimit:4;stroke-dasharray:none;stroke-opacity:1"
       id="rect4219"
       width="106.42856"
       height="29.285706"
       x="301.42856"
       y="145"
       ry="13.928567" />
    <text
       xml:space="preserve"
       style="font-style:normal;font-weight:normal;font-size:17.5px;line-height:125%;font-family:sans-serif;text-align:center;letter-spacing:0px;word-spacing:0px;text-anchor:middle;fill:#000000;fill-opacity:1;stroke:none;stroke-width:1px;stroke-linecap:butt;stroke-linejoin:miter;stroke-opacity:1"
       x="355.71429"
       y="165.71428"
       id="text4221"
       sodipodi:linespacing="125%"><tspan
         sodipodi:role="line"
         id="tspan4223"
         x="355.71429"
         y="165.71428">Service B</tspan></text>
  </g>
  <g
     inkscape:label="Feedback bottom"
     id="g4170"
     inkscape:groupmode="layer"
     style="display:inline">
    <path
       sodipodi:nodetypes="cscccccsccccc"
       inkscape:connector-curvature="0"
       id="path4172"
       d="M 184.77037,207.63952 C 140.82395,205.93609 76.120641,182.28615 61.97991,165.36413 47.838301,148.44108 77.471494,122.60756 102.02567,115.19225 l 0.19385,-2.253 3.40813,4.53272 -3.73473,4.44343 0.19385,-2.69943 c -20.724189,10.18551 -46.060198,27.48644 -32.196424,44.07701 13.863784,16.59058 72.216384,37.36718 115.996374,39.06278 l 0.004,0 c 39.77221,1.72257 141.71447,0.44543 167.3788,-27.92017 l 5.14899,-0.0298 c -24.24276,35.70796 -132.54013,35.16079 -173.64814,33.23373 z"
       style="color:#000000;font-style:normal;font-variant:normal;font-weight:normal;font-stretch:normal;font-size:medium;line-height:normal;font-family:sans-serif;text-indent:0;text-align:start;text-decoration:none;text-decoration-line:none;text-decoration-style:solid;text-decoration-color:#000000;letter-spacing:normal;word-spacing:normal;text-transform:none;direction:ltr;block-progression:tb;writing-mode:lr-tb;baseline-shift:baseline;text-anchor:start;white-space:normal;clip-rule:nonzero;display:inline;overflow:visible;visibility:visible;opacity:1;isolation:auto;mix-blend-mode:normal;color-interpolation:sRGB;color-interpolation-filters:linearRGB;solid-color:#000000;solid-opacity:1;fill:#ff6600;fill-opacity:1;fill-rule:evenodd;stroke:#000000;stroke-width:1px;stroke-linecap:butt;stroke-linejoin:miter;stroke-miterlimit:4;stroke-dasharray:none;stroke-dashoffset:0;stroke-opacity:1;color-rendering:auto;image-rendering:auto;shape-rendering:auto;text-rendering:auto;enable-background:accumulate" />
  </g>
  <g
     inkscape:groupmode="layer"
     id="layer9"
     inkscape:label="Feedback top"
     style="display:inline">
    <path
       style="color:#000000;font-style:normal;font-variant:normal;font-weight:normal;font-stretch:normal;font-size:medium;line-height:normal;font-family:sans-serif;text-indent:0;text-align:start;text-decoration:none;text-decoration-line:none;text-decoration-style:solid;text-decoration-color:#000000;letter-spacing:normal;word-spacing:normal;text-transform:none;direction:ltr;block-progression:tb;writing-mode:lr-tb;baseline-shift:baseline;text-anchor:start;white-space:normal;clip-rule:nonzero;display:inline;overflow:visible;visibility:visible;opacity:1;isolation:auto;mix-blend-mode:normal;color-interpolation:sRGB;color-interpolation-filters:linearRGB;solid-color:#000000;solid-opacity:1;fill:#ffcc00;fill-opacity:1;fill-rule:evenodd;stroke:#000000;stroke-width:1px;stroke-linecap:butt;stroke-linejoin:miter;stroke-miterlimit:4;stroke-dasharray:none;stroke-dashoffset:0;stroke-opacity:1;color-rendering:auto;image-rendering:auto;shape-rendering:auto;text-rendering:auto;enable-background:accumulate"
       d="M 184.77037,15.761161 C 140.82395,17.464592 76.120641,41.114534 61.97991,58.036551 47.838301,74.959609 77.471494,100.79312 102.02567,108.20843 l 0.19385,2.253 3.40813,-4.53272 -3.73473,-4.44343 0.19385,2.69943 C 81.362581,93.999209 56.026572,76.698278 69.890346,60.107701 83.75413,43.517123 142.10673,22.740519 185.88672,21.044922 l 0.004,0 c 39.77221,-1.722567 117.47081,-8.021567 143.13514,20.34403 l 5.14899,0.02985 C 309.93209,5.7107979 225.87838,13.834106 184.77037,15.761161 Z"
       id="path4166"
       inkscape:connector-curvature="0"
       sodipodi:nodetypes="cscccccsccccc" />
  </g>
  <g
     inkscape:groupmode="layer"
     id="layer6"
     inkscape:label="Databus Bottom"
     style="display:inline">
    <path
       style="fill:#ffcc00;fill-opacity:1;stroke:none;stroke-width:1;stroke-miterlimit:4;stroke-dasharray:none;stroke-opacity:1"
       d="m 174.75586,106.4082 0,2.77735 0,6.31445 c 0,0 145.82796,0.48325 150.22266,0.53125 17.39007,5.62221 28.93434,22.14334 29.08593,24.26563 l -3.27734,0.0781 4.39844,4.61523 4.25195,-4.61523 -2.99609,0.0254 c 0,0 -3.12459,-11.94634 -16.94141,-24.53711 11.60877,-0.0541 82.89258,-0.47461 82.89258,-0.47461 l -1.72461,8.4375 18.20703,-14.85547 -3.14648,-2.5625 -260.97266,0 z"
       id="rect4201"
       inkscape:connector-curvature="0" />
    <text
       xml:space="preserve"
       style="font-style:normal;font-weight:normal;font-size:17.5px;line-height:125%;font-family:sans-serif;text-align:center;letter-spacing:0px;word-spacing:0px;text-anchor:middle;fill:#ff6600;fill-opacity:1;stroke:#000000;stroke-width:0.40000001;stroke-linecap:butt;stroke-linejoin:miter;stroke-miterlimit:4;stroke-dasharray:none;stroke-opacity:1"
       x="212"
       y="194.5"
       id="text4917"
       sodipodi:linespacing="125%"><tspan
         sodipodi:role="line"
         id="tspan4919"
         x="212"
         y="194.5"
         style="font-style:italic;font-variant:normal;font-weight:normal;font-stretch:normal;font-size:15px;font-family:sans-serif;-inkscape-font-specification:'sans-serif Italic';fill:#ff6600;fill-opacity:1;stroke:#000000;stroke-width:0.40000001;stroke-miterlimit:4;stroke-dasharray:none;stroke-opacity:1">publish</tspan></text>
  </g>
  <g
     inkscape:groupmode="layer"
     id="layer5"
     inkscape:label="Databus top"
     style="display:inline">
    <path
       style="fill:#ff6600;fill-opacity:1;stroke:none;stroke-width:1;stroke-miterlimit:4;stroke-dasharray:none;stroke-opacity:1"
       d="m 330.94727,71.595703 -5.60352,3.734375 3.97461,0.103516 c 0.43781,12.520907 -12.78976,23.015243 -30.3125,27.499996 l -124.25,-0.0605 0,5.55664 263.45508,0 -17.98828,-14.64844 1.95898,9.21484 -106.21289,-0.41797 c 7.11217,-6.527937 16.00555,-10.919072 15.11133,-27.054682 l 3.49609,-0.140626 -3.6289,-3.787109 z"
       id="rect4187"
       inkscape:connector-curvature="0" />
    <text
       xml:space="preserve"
       style="font-style:normal;font-weight:normal;font-size:17.5px;line-height:125%;font-family:sans-serif;text-align:center;letter-spacing:0px;word-spacing:0px;text-anchor:middle;display:inline;fill:#ffcc00;fill-opacity:1;stroke:#000000;stroke-width:0.40000001;stroke-linecap:butt;stroke-linejoin:miter;stroke-miterlimit:4;stroke-dasharray:none;stroke-opacity:1"
       x="209.14017"
       y="36.816986"
       id="text4911"
       sodipodi:linespacing="125%"><tspan
         sodipodi:role="line"
         id="tspan4913"
         x="209.14017"
         y="36.816986"
         style="font-style:italic;font-variant:normal;font-weight:normal;font-stretch:normal;font-size:15px;font-family:sans-serif;-inkscape-font-specification:'sans-serif Italic';fill:#ffcc00;fill-opacity:1;stroke:#000000;stroke-width:0.40000001;stroke-miterlimit:4;stroke-dasharray:none;stroke-opacity:1">publish</tspan></text>
  </g>
  <g
     inkscape:groupmode="layer"
     id="layer4"
     inkscape:label="Databus"
     style="display:inline">
    <path
       style="fill:none;fill-rule:evenodd;stroke:#000000;stroke-width:1px;stroke-linecap:butt;stroke-linejoin:miter;stroke-opacity:1"
       d="m 174.75639,102.87307 124.24876,0.0613 c 17.52274,-4.484757 30.75008,-14.979094 30.31227,-27.500001 l -3.97343,-0.104605 5.60257,-3.734677 3.6293,3.786988 -3.49559,0.14159 c 0.89422,16.135611 -7.99956,20.525633 -15.11173,27.053575 l 106.21395,0.41841 -1.95903,-9.21393 18.65193,15.18819 -18.20812,14.85642 1.72443,-8.43837 c 0,0 -71.28221,0.42029 -82.89098,0.47441 13.81682,12.59077 16.94052,24.53825 16.94052,24.53825 l 2.99597,-0.0262 -4.25152,4.6167 -4.39943,-4.61671 3.27913,-0.0785 c -0.15159,-2.12229 -11.69591,-18.64185 -29.08598,-24.26406 -4.3947,-0.048 -150.22302,-0.53202 -150.22302,-0.53202 l 0,-6.31345 z"
       id="path4162"
       inkscape:connector-curvature="0"
       sodipodi:nodetypes="ccccccccccccccccccccccc" />
  </g>
  <g
     inkscape:groupmode="layer"
     id="layer10"
     inkscape:label="Databus text">
    <text
       xml:space="preserve"
       style="font-style:normal;font-weight:normal;font-size:17.5px;line-height:125%;font-family:sans-serif;text-align:center;letter-spacing:0px;word-spacing:0px;text-anchor:middle;fill:#000000;fill-opacity:1;stroke:none;stroke-width:1px;stroke-linecap:butt;stroke-linejoin:miter;stroke-opacity:1"
       x="238.57143"
       y="113.57143"
       id="text4175"
       sodipodi:linespacing="125%"><tspan
         sodipodi:role="line"
         id="tspan4177"
         x="238.57143"
         y="113.57143"
         style="font-size:12.5px">Databus</tspan></text>
  </g>
</svg>
