<?xml version="1.0" encoding="UTF-8" standalone="no"?>
<!-- Created with Inkscape (http://www.inkscape.org/) -->

<svg
   xmlns:dc="http://purl.org/dc/elements/1.1/"
   xmlns:cc="http://creativecommons.org/ns#"
   xmlns:rdf="http://www.w3.org/1999/02/22-rdf-syntax-ns#"
   xmlns:svg="http://www.w3.org/2000/svg"
   xmlns="http://www.w3.org/2000/svg"
   xmlns:sodipodi="http://sodipodi.sourceforge.net/DTD/sodipodi-0.dtd"
   xmlns:inkscape="http://www.inkscape.org/namespaces/inkscape"
   width="500"
   height="500"
   viewBox="0 0 500.00001 500.00001"
   id="svg3345"
   version="1.1"
   inkscape:version="0.91 r13725"
   sodipodi:docname="emologo.svg">
  <defs
     id="defs3347" />
  <sodipodi:namedview
     id="base"
     pagecolor="#ffffff"
     bordercolor="#666666"
     borderopacity="1.0"
     inkscape:pageopacity="0.0"
     inkscape:pageshadow="2"
     inkscape:zoom="0.7"
     inkscape:cx="391.17493"
     inkscape:cy="111.40752"
     inkscape:document-units="px"
     inkscape:current-layer="layer1"
     showgrid="false"
     inkscape:window-width="1440"
     inkscape:window-height="841"
     inkscape:window-x="274"
     inkscape:window-y="0"
     inkscape:window-maximized="0"
     units="px" />
  <metadata
     id="metadata3350">
    <rdf:RDF>
      <cc:Work
         rdf:about="">
        <dc:format>image/svg+xml</dc:format>
        <dc:type
           rdf:resource="http://purl.org/dc/dcmitype/StillImage" />
        <dc:title />
      </cc:Work>
    </rdf:RDF>
  </metadata>
  <g
     inkscape:groupmode="layer"
     id="layer4"
     inkscape:label="Head"
     style="display:inline"
     transform="translate(0,-552.36214)">
    <ellipse
       style="fill:#ffffff;stroke:#000000;stroke-width:7.45557594;stroke-miterlimit:4;stroke-dasharray:none;stroke-opacity:1"
       id="path4247"
       ry="227.41507"
       rx="235.98662"
       cy="812.56097"
       cx="254.32645" />
  </g>
  <g
     inkscape:groupmode="layer"
     id="layer5"
     inkscape:label="Hair"
     style="display:inline"
     transform="translate(0,-552.36214)">
    <path
       style="fill:#000000;fill-opacity:1;fill-rule:evenodd;stroke:#000000;stroke-width:1px;stroke-linecap:butt;stroke-linejoin:miter;stroke-opacity:1"
       d="m 294.88934,951.42015 c 68.54553,-33.93668 97.39918,-139.52194 111.81519,-177.3132 6.74318,77.10838 -31.60764,151.87518 -61.70109,204.72442 95.59577,-35.5239 141.20405,-86.61475 144.3033,-186.12731 C 490.19631,713.87991 403.67969,579.02096 244.69345,578.54621 47.617369,578.44208 -88.178011,874.043 138.42433,1012.9118 70.511764,884.35432 45.446847,754.21476 183.7079,766.853 c 59.10608,0.0222 103.43321,91.03953 86.03633,157.16538 41.03066,-51.16494 55.55842,-148.49243 55.55842,-148.49243 25.86347,59.79841 -30.41331,175.8942 -30.41331,175.8942 z"
       id="path7041"
       inkscape:connector-curvature="0"
       sodipodi:nodetypes="cccccccccc" />
  </g>
  <g
     inkscape:groupmode="layer"
     id="layer1"
     inkscape:label="Blue Highlight"
     style="display:inline">
    <path
       style="display:inline;fill:#0000ff;fill-rule:evenodd;stroke:none;stroke-width:1px;stroke-linecap:butt;stroke-linejoin:miter;stroke-opacity:1"
       d="m 264.93164,26.372561 c 166.83944,185.782019 93.77973,275.081089 31.20976,369.036909 -0.54752,1.19448 -2.1219,4.29617 -2.40204,4.88877 l 12.38691,-6.82579 c 60.6062,-39.18652 87.34669,-134.40604 100.95762,-170.08681 l 5.44096,-1.08131 C 431.85109,162.22748 320.19758,34.907771 291.59062,30.024221 c -8.78035,-1.617007 -17.32918,-2.933197 -26.65898,-3.65166 z"
       id="path4153"
       inkscape:connector-curvature="0"
       sodipodi:nodetypes="cccccccc" />
  </g>
  <g
     inkscape:groupmode="layer"
     id="layer2"
     inkscape:label="Purple Highlight"
     style="display:inline">
    <path
       style="fill:#800080;fill-opacity:1;fill-rule:evenodd;stroke:none;stroke-width:1px;stroke-linecap:butt;stroke-linejoin:miter;stroke-opacity:1"
       d="m 288.25,29.334768 c 62.35434,38.572596 109.23235,135.558492 117.95,194.808482 5.28826,76.48046 -30.47188,147.34928 -60.42588,200.10431 -0.22058,0.49918 -1.4512,2.51358 -1.67031,3.01327 9.29002,-3.45779 19.24031,-7.31513 27.5915,-11.09823 C 437.08995,319.21995 493.48446,226.64121 351.08008,48.841896 331.99972,40.005138 311.03855,33.171 288.25,29.334768 Z"
       id="path8492"
       inkscape:connector-curvature="0"
       sodipodi:nodetypes="ccccccc" />
  </g>
  <g
     inkscape:groupmode="layer"
     id="layer8"
     inkscape:label="Eye"
     style="display:inline"
     transform="translate(0,-552.36214)">
    <text
       xml:space="preserve"
       style="font-style:normal;font-weight:normal;font-size:25px;line-height:125%;font-family:sans-serif;text-align:center;letter-spacing:0px;word-spacing:0px;text-anchor:middle;fill:#000000;fill-opacity:1;stroke:none;stroke-width:1px;stroke-linecap:butt;stroke-linejoin:miter;stroke-opacity:1"
       x="142.14285"
       y="639.505"
       id="text5605"
       sodipodi:linespacing="125%"><tspan
         sodipodi:role="line"
         id="tspan5607"
         x="142.14285"
         y="639.505" /></text>
    <path
       style="fill:#000000;fill-opacity:1;stroke:#000000;stroke-width:1.35122705;stroke-miterlimit:4;stroke-dasharray:none;stroke-opacity:1"
       d="m 246.31532,858.31976 c -19.30324,1.22923 -77.75594,4.96925 -97.87355,6.59225 8.63983,24.24537 49.19389,28.24268 78.64942,8.65469 l 18.47123,-0.73773 c -2.41926,16.26256 -28.14169,37.12692 -73.082,37.12692 -40.77788,0 -73.834898,-23.1183 -73.834908,-51.63617 0,-28.51788 33.057008,-51.63619 73.834908,-51.63619 40.77789,0 73.8349,23.11831 73.8349,51.63619"
       id="path5620"
       inkscape:connector-curvature="0"
       sodipodi:nodetypes="ccccsssc" />
  </g>
</svg>
